# xmcd
#
# Track frame offsets: 
#        150
#        15734
#        32772
#        60028
#        74817
#        90952
#        106655
#        119328
#        136621
#        151820
#        170419
#        186225
#
# Disc length: 2727 seconds
#
# Revision: 1
# Processed by: cddbd v1.5.1PL0 Copyright (c) Steve Scherf et al.
# Submitted via: ExactAudioCopy v0.90b3
#
DISCID=8c0aa50c
DTITLE=Little Milton - Think Of Me
DYEAR=2005
DGENRE=Blues
TTITLE0=Gonna Find Me Somebody To Love
TTITLE1=Let Your Love Rain Down On Me
TTITLE2=The Blues Is My Companion
TTITLE3=Something Wonderful
TTITLE4=Gone With The Wind
TTITLE5=I´ll Be
TTITLE6=Next To You
TTITLE7=Think Of Me  (Thinking Of You)
TTITLE8=Reconsider Me
TTITLE9=Second Hand Love
TTITLE10=Feel Like A Man
TTITLE11=That´s Where It´s At
EXTD=
EXTT0=
EXTT1=
EXTT2=
EXTT3=
EXTT4=
EXTT5=
EXTT6=
EXTT7=
EXTT8=
EXTT9=
EXTT10=
EXTT11=
PLAYORDER=
